<?xml version="1.0" standalone="no"?>
<!DOCTYPE svg PUBLIC "-//W3C//DTD SVG 20010904//EN"
 "http://www.w3.org/TR/2001/REC-SVG-20010904/DTD/svg10.dtd">
<svg version="1.0" xmlns="http://www.w3.org/2000/svg"
 width="512.000000pt" height="512.000000pt" viewBox="0 0 512.000000 512.000000"
 preserveAspectRatio="xMidYMid meet">
<metadata>
Created by potrace 1.14, written by Peter Selinger 2001-2017
</metadata>
<g transform="translate(0.000000,512.000000) scale(0.100000,-0.100000)"
fill="#000000" stroke="none">
<path d="M162 5033 c-85 -42 -117 -153 -68 -237 39 -68 86 -86 219 -86 l107 0
0 -640 0 -640 -37 -19 c-51 -26 -87 -66 -115 -126 -23 -50 -23 -53 -23 -460 0
-397 1 -411 21 -455 44 -92 144 -160 237 -160 39 0 47 -3 47 -19 0 -10 -27
-315 -60 -677 -33 -362 -61 -676 -62 -697 l-3 -38 765 -355 764 -354 123 0
123 0 0 43 c0 83 -21 344 -36 462 -74 577 -278 1058 -598 1415 -248 275 -587
475 -918 540 l-58 11 0 1084 0 1084 208 3 c207 3 209 3 249 30 112 74 94 250
-30 297 -18 7 -168 11 -425 11 -347 0 -401 -3 -430 -17z"/>
<path d="M2475 5044 c-16 -2 -82 -11 -145 -20 -414 -57 -787 -227 -1047 -478
-218 -210 -353 -439 -432 -737 -27 -101 -61 -284 -61 -331 0 -17 100 -18 1950
-18 1073 0 1950 3 1950 6 0 33 -36 240 -56 316 -152 604 -593 1029 -1238 1193
-219 55 -330 68 -626 71 -146 1 -278 0 -295 -2z m860 -735 c161 -109 415 -113
578 -9 70 44 80 41 75 -23 -12 -142 -133 -259 -296 -288 -168 -30 -344 64
-401 214 -22 59 -28 137 -12 137 6 0 31 -14 56 -31z"/>
<path d="M780 3006 l0 -84 33 -6 c262 -47 1560 -276 1567 -276 7 0 10 -441 10
-1285 l0 -1285 350 0 350 0 0 1285 c0 731 4 1285 9 1285 5 0 363 63 797 140
433 77 791 140 796 140 4 0 8 38 8 85 l0 85 -1960 0 -1960 0 0 -84z"/>
<path d="M4785 2520 c-443 -101 -854 -419 -1116 -861 -237 -400 -359 -857
-385 -1437 l-7 -152 123 0 123 0 759 352 c418 193 762 358 765 365 3 7 -34
401 -81 875 -48 475 -86 866 -86 871 0 9 1 9 -95 -13z"/>
</g>
</svg>
